<?xml version="1.0" encoding="UTF-8" standalone="no"?>
<!-- Created with Inkscape (http://www.inkscape.org/) -->

<svg
   width="28.540899mm"
   height="28.540899mm"
   viewBox="-1 -1 30.541 30.541"
   version="1.1"
   id="svg1"
   inkscape:version="1.4.3 (0d15f75042, 2025-12-25)"
   sodipodi:docname="logo.svg"
   xmlns:inkscape="http://www.inkscape.org/namespaces/inkscape"
   xmlns:sodipodi="http://sodipodi.sourceforge.net/DTD/sodipodi-0.dtd"
   xmlns="http://www.w3.org/2000/svg"
   xmlns:svg="http://www.w3.org/2000/svg">
  <sodipodi:namedview
     id="namedview1"
     pagecolor="#ffffff"
     bordercolor="#000000"
     borderopacity="0.25"
     inkscape:showpageshadow="2"
     inkscape:pageopacity="0.0"
     inkscape:pagecheckerboard="0"
     inkscape:deskcolor="#d1d1d1"
     inkscape:document-units="mm"
     showguides="true"
     inkscape:zoom="4"
     inkscape:cx="-25.375"
     inkscape:cy="81.75"
     inkscape:window-width="2560"
     inkscape:window-height="1372"
     inkscape:window-x="0"
     inkscape:window-y="40"
     inkscape:window-maximized="1"
     inkscape:current-layer="layer1">
    <sodipodi:guide
       position="14.270449,282.72955"
       orientation="0,-1"
       id="guide1"
       inkscape:locked="false" />
    <sodipodi:guide
       position="14.270449,282.72955"
       orientation="1,0"
       id="guide2"
       inkscape:locked="false" />
  </sodipodi:namedview>
  <defs
     id="defs1" />
  <g
     inkscape:label="Слой 1"
     inkscape:groupmode="layer"
     id="layer1"
     transform="translate(-90.729551,-134.22955)">
    <g
       id="g4"
       transform="rotate(11.221097,105,148.5)">
      <path
         id="path2"
         style="stroke:#ff7f2a;stroke-width:1;stroke-linecap:round;stroke-linejoin:round;stroke-dasharray:none"
         d="M 118.76827,148.5 A 13.76827,13.76827 0 0 1 105,162.26827 13.76827,13.76827 0 0 1 91.23173,148.5 13.76827,13.76827 0 0 1 105,134.73173 13.76827,13.76827 0 0 1 118.76827,148.5 Z" />
      <path
         id="rect2"
         style="fill:#f9f9f9;stroke-width:2;stroke-linecap:round;stroke-linejoin:round"
         d="m 103.31824,138.0138 c -0.18458,0 -0.31725,0.14943 -0.33331,0.33331 -0.65381,7.48401 -0.65381,7.48401 -8.13904,8.13852 -0.183878,0.0161 -0.332796,0.14874 -0.332796,0.33332 v 3.36361 c 0,0.18458 0.148914,0.31728 0.332796,0.33332 7.48523,0.65299 7.48523,0.65299 8.13904,8.13852 0.0161,0.18388 0.14873,0.33331 0.33331,0.33331 h 3.36362 c 0.18458,0 0.31673,-0.14943 0.3328,-0.33331 0.65422,-7.48553 0.65422,-7.48553 8.13903,-8.13852 0.18388,-0.016 0.33332,-0.14874 0.33332,-0.33332 v -3.36361 c 0,-0.18458 -0.14944,-0.31724 -0.33332,-0.33332 -7.48481,-0.65451 -7.48481,-0.65451 -8.13903,-8.13852 -0.0161,-0.18388 -0.14822,-0.33331 -0.3328,-0.33331 z"
         sodipodi:nodetypes="sssssssssssssssss" />
    </g>
  </g>
</svg>
